<svg width="240" height="240" viewBox="0 0 240 240" fill="none" xmlns="http://www.w3.org/2000/svg">
<path d="M120 224C177.438 224 224 177.438 224 120C224 62.5624 177.438 16 120 16C62.5624 16 16 62.5624 16 120C16 177.438 62.5624 224 120 224Z" fill="#EDF2F7"/>
<path d="M97.392 106.909H84.5739C84.483 105.848 84.2405 104.886 83.8466 104.023C83.4678 103.159 82.9375 102.417 82.2557 101.795C81.589 101.159 80.7784 100.674 79.8239 100.341C78.8693 99.9924 77.786 99.8182 76.5739 99.8182C74.4527 99.8182 72.6572 100.333 71.1875 101.364C69.733 102.394 68.6269 103.871 67.8693 105.795C67.1269 107.72 66.7557 110.03 66.7557 112.727C66.7557 115.576 67.1345 117.962 67.892 119.886C68.6648 121.795 69.7784 123.235 71.233 124.205C72.6875 125.159 74.4375 125.636 76.483 125.636C77.6496 125.636 78.6951 125.492 79.6193 125.205C80.5436 124.902 81.3466 124.47 82.0284 123.909C82.7102 123.348 83.2633 122.674 83.6875 121.886C84.1269 121.083 84.4223 120.182 84.5739 119.182L97.392 119.273C97.2405 121.242 96.6875 123.25 95.733 125.295C94.7784 127.326 93.4223 129.205 91.6648 130.932C89.9223 132.644 87.7633 134.023 85.1875 135.068C82.6117 136.114 79.6193 136.636 76.2102 136.636C71.9375 136.636 68.1042 135.72 64.7102 133.886C61.3314 132.053 58.6572 129.356 56.6875 125.795C54.733 122.235 53.7557 117.879 53.7557 112.727C53.7557 107.545 54.7557 103.182 56.7557 99.6364C58.7557 96.0758 61.4527 93.3864 64.8466 91.5682C68.2405 89.7348 72.0284 88.8182 76.2102 88.8182C79.1496 88.8182 81.8542 89.2197 84.3239 90.0227C86.7936 90.8258 88.9602 92 90.8239 93.5455C92.6875 95.0758 94.1875 96.9621 95.3239 99.2045C96.4602 101.447 97.1496 104.015 97.392 106.909ZM103.125 136V89.4545H123.216C126.67 89.4545 129.693 90.1364 132.284 91.5C134.875 92.8636 136.89 94.7803 138.33 97.25C139.769 99.7197 140.489 102.606 140.489 105.909C140.489 109.242 139.746 112.129 138.261 114.568C136.792 117.008 134.723 118.886 132.057 120.205C129.405 121.523 126.307 122.182 122.761 122.182H110.761V112.364H120.216C121.701 112.364 122.966 112.106 124.011 111.591C125.072 111.061 125.883 110.311 126.443 109.341C127.019 108.371 127.307 107.227 127.307 105.909C127.307 104.576 127.019 103.439 126.443 102.5C125.883 101.545 125.072 100.818 124.011 100.318C122.966 99.803 121.701 99.5455 120.216 99.5455H115.761V136H103.125ZM163.034 136H145.125V89.4545H162.852C167.64 89.4545 171.777 90.3864 175.261 92.25C178.761 94.0985 181.458 96.7651 183.352 100.25C185.261 103.72 186.216 107.879 186.216 112.727C186.216 117.576 185.269 121.742 183.375 125.227C181.481 128.697 178.799 131.364 175.33 133.227C171.86 135.076 167.761 136 163.034 136ZM157.761 125.273H162.58C164.883 125.273 166.845 124.902 168.466 124.159C170.102 123.417 171.345 122.136 172.193 120.318C173.057 118.5 173.489 115.97 173.489 112.727C173.489 109.485 173.049 106.955 172.17 105.136C171.307 103.318 170.034 102.038 168.352 101.295C166.686 100.553 164.64 100.182 162.216 100.182H157.761V125.273ZM57.8764 150.909H53.8707C53.8423 150.578 53.7666 150.277 53.6435 150.007C53.5251 149.737 53.3594 149.505 53.1463 149.311C52.938 149.112 52.6847 148.961 52.3864 148.857C52.0881 148.748 51.7495 148.693 51.3707 148.693C50.7079 148.693 50.1468 148.854 49.6875 149.176C49.233 149.498 48.8873 149.96 48.6506 150.561C48.4186 151.162 48.3026 151.884 48.3026 152.727C48.3026 153.617 48.4209 154.363 48.6577 154.964C48.8991 155.561 49.2472 156.011 49.7017 156.314C50.1563 156.612 50.7031 156.761 51.3423 156.761C51.7069 156.761 52.0336 156.716 52.3224 156.626C52.6113 156.532 52.8622 156.397 53.0753 156.222C53.2884 156.046 53.4612 155.836 53.5938 155.589C53.7311 155.339 53.8234 155.057 53.8707 154.744L57.8764 154.773C57.8291 155.388 57.6563 156.016 57.358 156.655C57.0597 157.289 56.6359 157.876 56.0866 158.416C55.5421 158.951 54.8674 159.382 54.0625 159.709C53.2576 160.036 52.3224 160.199 51.2571 160.199C49.9219 160.199 48.724 159.912 47.6634 159.339C46.6075 158.767 45.7718 157.924 45.1562 156.811C44.5455 155.698 44.2401 154.337 44.2401 152.727C44.2401 151.108 44.5526 149.744 45.1776 148.636C45.8026 147.524 46.6454 146.683 47.706 146.115C48.7666 145.542 49.9503 145.256 51.2571 145.256C52.1757 145.256 53.0208 145.381 53.7926 145.632C54.5644 145.883 55.2415 146.25 55.8239 146.733C56.4063 147.211 56.875 147.801 57.2301 148.501C57.5852 149.202 57.8007 150.005 57.8764 150.909ZM73.7589 152.727C73.7589 154.347 73.444 155.713 72.8143 156.825C72.1845 157.933 71.3346 158.774 70.2646 159.347C69.1945 159.915 68.0013 160.199 66.685 160.199C65.3593 160.199 64.1613 159.912 63.0913 159.339C62.0259 158.762 61.1784 157.919 60.5487 156.811C59.9237 155.698 59.6112 154.337 59.6112 152.727C59.6112 151.108 59.9237 149.744 60.5487 148.636C61.1784 147.524 62.0259 146.683 63.0913 146.115C64.1613 145.542 65.3593 145.256 66.685 145.256C68.0013 145.256 69.1945 145.542 70.2646 146.115C71.3346 146.683 72.1845 147.524 72.8143 148.636C73.444 149.744 73.7589 151.108 73.7589 152.727ZM69.6964 152.727C69.6964 151.856 69.5804 151.122 69.3484 150.526C69.1211 149.924 68.7826 149.47 68.3327 149.162C67.8877 148.849 67.3384 148.693 66.685 148.693C66.0316 148.693 65.48 148.849 65.0302 149.162C64.5851 149.47 64.2466 149.924 64.0146 150.526C63.7873 151.122 63.6737 151.856 63.6737 152.727C63.6737 153.598 63.7873 154.335 64.0146 154.936C64.2466 155.533 64.5851 155.987 65.0302 156.3C65.48 156.607 66.0316 156.761 66.685 156.761C67.3384 156.761 67.8877 156.607 68.3327 156.3C68.7826 155.987 69.1211 155.533 69.3484 154.936C69.5804 154.335 69.6964 153.598 69.6964 152.727ZM75.5859 160V145.455H81.8643C82.9439 145.455 83.8885 145.651 84.6982 146.044C85.5078 146.437 86.1375 147.003 86.5874 147.741C87.0372 148.48 87.2621 149.366 87.2621 150.398C87.2621 151.439 87.0301 152.318 86.5661 153.033C86.1068 153.748 85.4605 154.287 84.6271 154.652C83.7985 155.017 82.8303 155.199 81.7223 155.199H77.9723V152.131H80.9268C81.3909 152.131 81.7862 152.074 82.1129 151.96C82.4444 151.842 82.6977 151.655 82.8729 151.399C83.0528 151.143 83.1428 150.81 83.1428 150.398C83.1428 149.981 83.0528 149.643 82.8729 149.382C82.6977 149.117 82.4444 148.923 82.1129 148.8C81.7862 148.672 81.3909 148.608 80.9268 148.608H79.5348V160H75.5859ZM84.1087 153.324L87.745 160H83.4553L79.9041 153.324H84.1087ZM88.9453 160V145.455H95.2237C96.3033 145.455 97.2479 145.668 98.0575 146.094C98.8672 146.52 99.4969 147.119 99.9467 147.891C100.397 148.662 100.621 149.564 100.621 150.597C100.621 151.638 100.389 152.54 99.9254 153.303C99.4661 154.065 98.8198 154.652 97.9865 155.064C97.1579 155.476 96.1896 155.682 95.0817 155.682H91.3317V152.614H94.2862C94.7502 152.614 95.1456 152.533 95.4723 152.372C95.8037 152.206 96.0571 151.972 96.2322 151.669C96.4122 151.366 96.5021 151.009 96.5021 150.597C96.5021 150.18 96.4122 149.825 96.2322 149.531C96.0571 149.233 95.8037 149.006 95.4723 148.849C95.1456 148.688 94.7502 148.608 94.2862 148.608H92.8942V160H88.9453ZM102.07 160V145.455H108.349C109.428 145.455 110.373 145.651 111.183 146.044C111.992 146.437 112.622 147.003 113.072 147.741C113.522 148.48 113.746 149.366 113.746 150.398C113.746 151.439 113.514 152.318 113.05 153.033C112.591 153.748 111.945 154.287 111.112 154.652C110.283 155.017 109.315 155.199 108.207 155.199H104.457V152.131H107.411C107.875 152.131 108.271 152.074 108.597 151.96C108.929 151.842 109.182 151.655 109.357 151.399C109.537 151.143 109.627 150.81 109.627 150.398C109.627 149.981 109.537 149.643 109.357 149.382C109.182 149.117 108.929 148.923 108.597 148.8C108.271 148.672 107.875 148.608 107.411 148.608H106.019V160H102.07ZM110.593 153.324L114.229 160H109.94L106.388 153.324H110.593ZM129.521 152.727C129.521 154.347 129.206 155.713 128.576 156.825C127.946 157.933 127.096 158.774 126.026 159.347C124.956 159.915 123.763 160.199 122.447 160.199C121.121 160.199 119.923 159.912 118.853 159.339C117.788 158.762 116.94 157.919 116.31 156.811C115.685 155.698 115.373 154.337 115.373 152.727C115.373 151.108 115.685 149.744 116.31 148.636C116.94 147.524 117.788 146.683 118.853 146.115C119.923 145.542 121.121 145.256 122.447 145.256C123.763 145.256 124.956 145.542 126.026 146.115C127.096 146.683 127.946 147.524 128.576 148.636C129.206 149.744 129.521 151.108 129.521 152.727ZM125.458 152.727C125.458 151.856 125.342 151.122 125.11 150.526C124.883 149.924 124.544 149.47 124.094 149.162C123.649 148.849 123.1 148.693 122.447 148.693C121.793 148.693 121.242 148.849 120.792 149.162C120.347 149.47 120.008 149.924 119.776 150.526C119.549 151.122 119.435 151.856 119.435 152.727C119.435 153.598 119.549 154.335 119.776 154.936C120.008 155.533 120.347 155.987 120.792 156.3C121.242 156.607 121.793 156.761 122.447 156.761C123.1 156.761 123.649 156.607 124.094 156.3C124.544 155.987 124.883 155.533 125.11 154.936C125.342 154.335 125.458 153.598 125.458 152.727ZM136.944 160H131.348V145.455H136.887C138.384 145.455 139.676 145.746 140.765 146.328C141.859 146.906 142.702 147.739 143.294 148.828C143.89 149.912 144.189 151.212 144.189 152.727C144.189 154.242 143.893 155.545 143.301 156.634C142.709 157.718 141.871 158.551 140.787 159.134C139.702 159.711 138.422 160 136.944 160ZM135.297 156.648H136.802C137.522 156.648 138.135 156.532 138.642 156.3C139.153 156.068 139.541 155.668 139.806 155.099C140.076 154.531 140.211 153.741 140.211 152.727C140.211 151.714 140.074 150.923 139.799 150.355C139.529 149.787 139.132 149.387 138.606 149.155C138.085 148.923 137.446 148.807 136.689 148.807H135.297V156.648ZM149.964 145.455V160H146.016V145.455H149.964ZM164.421 145.455V160H161.126L155.87 152.358H155.785V160H151.836V145.455H155.188L160.359 153.068H160.472V145.455H164.421ZM179.869 150.909H175.863C175.835 150.578 175.759 150.277 175.636 150.007C175.517 149.737 175.352 149.505 175.138 149.311C174.93 149.112 174.677 148.961 174.379 148.857C174.08 148.748 173.742 148.693 173.363 148.693C172.7 148.693 172.139 148.854 171.68 149.176C171.225 149.498 170.879 149.96 170.643 150.561C170.411 151.162 170.295 151.884 170.295 152.727C170.295 153.617 170.413 154.363 170.65 154.964C170.891 155.561 171.239 156.011 171.694 156.314C172.148 156.612 172.695 156.761 173.335 156.761C173.699 156.761 174.026 156.716 174.315 156.626C174.603 156.532 174.854 156.397 175.067 156.222C175.281 156.046 175.453 155.836 175.586 155.589C175.723 155.339 175.816 155.057 175.863 154.744L179.869 154.773C179.821 155.388 179.648 156.016 179.35 156.655C179.052 157.289 178.628 157.876 178.079 158.416C177.534 158.951 176.86 159.382 176.055 159.709C175.25 160.036 174.315 160.199 173.249 160.199C171.914 160.199 170.716 159.912 169.656 159.339C168.6 158.767 167.764 157.924 167.148 156.811C166.538 155.698 166.232 154.337 166.232 152.727C166.232 151.108 166.545 149.744 167.17 148.636C167.795 147.524 168.638 146.683 169.698 146.115C170.759 145.542 171.942 145.256 173.249 145.256C174.168 145.256 175.013 145.381 175.785 145.632C176.557 145.883 177.234 146.25 177.816 146.733C178.398 147.211 178.867 147.801 179.222 148.501C179.577 149.202 179.793 150.005 179.869 150.909ZM195.751 152.727C195.751 154.347 195.436 155.713 194.806 156.825C194.177 157.933 193.327 158.774 192.257 159.347C191.187 159.915 189.993 160.199 188.677 160.199C187.351 160.199 186.154 159.912 185.083 159.339C184.018 158.762 183.171 157.919 182.541 156.811C181.916 155.698 181.603 154.337 181.603 152.727C181.603 151.108 181.916 149.744 182.541 148.636C183.171 147.524 184.018 146.683 185.083 146.115C186.154 145.542 187.351 145.256 188.677 145.256C189.993 145.256 191.187 145.542 192.257 146.115C193.327 146.683 194.177 147.524 194.806 148.636C195.436 149.744 195.751 151.108 195.751 152.727ZM191.689 152.727C191.689 151.856 191.573 151.122 191.341 150.526C191.113 149.924 190.775 149.47 190.325 149.162C189.88 148.849 189.331 148.693 188.677 148.693C188.024 148.693 187.472 148.849 187.022 149.162C186.577 149.47 186.239 149.924 186.007 150.526C185.779 151.122 185.666 151.856 185.666 152.727C185.666 153.598 185.779 154.335 186.007 154.936C186.239 155.533 186.577 155.987 187.022 156.3C187.472 156.607 188.024 156.761 188.677 156.761C189.331 156.761 189.88 156.607 190.325 156.3C190.775 155.987 191.113 155.533 191.341 154.936C191.573 154.335 191.689 153.598 191.689 152.727Z" fill="#4481EB"/>
</svg>
