<svg width="298" height="32" viewBox="0 0 298 32" fill="none" xmlns="http://www.w3.org/2000/svg">
<path d="M3.9375 3.57812H12.8906C15.5052 3.57812 17.776 3.85938 19.7031 4.42188C21.6302 4.98438 23.224 5.79167 24.4844 6.84375C25.7552 7.88542 26.6979 9.15625 27.3125 10.6562C27.9375 12.1458 28.25 13.8229 28.25 15.6875C28.25 17.4583 27.9427 19.099 27.3281 20.6094C26.7135 22.1094 25.776 23.4115 24.5156 24.5156C23.2552 25.6094 21.6615 26.4688 19.7344 27.0938C17.8073 27.7083 15.5365 28.0156 12.9219 28.0156L3.9375 28V3.57812ZM14.1094 23.7188C15.5885 23.7188 16.8854 23.5312 18 23.1562C19.1146 22.7708 20.0417 22.2292 20.7812 21.5312C21.5312 20.8333 22.0938 19.9896 22.4688 19C22.8438 18.0104 23.0312 16.9062 23.0312 15.6875C23.0312 14.4896 22.8438 13.4115 22.4688 12.4531C22.0938 11.4844 21.5312 10.6667 20.7812 10C20.0417 9.32292 19.1146 8.80208 18 8.4375C16.8854 8.07292 15.5885 7.89062 14.1094 7.89062H8.89062V23.7188H14.1094ZM31.7656 22.1875C31.7656 21.3021 31.9583 20.4948 32.3438 19.7656C32.7292 19.0365 33.3073 18.4115 34.0781 17.8906C34.849 17.3594 35.8073 16.9531 36.9531 16.6719C38.1094 16.3802 39.4531 16.2344 40.9844 16.2344C42.1198 16.2344 43.3125 16.3177 44.5625 16.4844C45.8229 16.651 47.1198 16.9062 48.4531 17.25C48.401 16.6667 48.224 16.1302 47.9219 15.6406C47.6198 15.1406 47.1979 14.7135 46.6562 14.3594C46.125 13.9948 45.4792 13.7135 44.7188 13.5156C43.9688 13.3177 43.1146 13.2188 42.1562 13.2188C41.6354 13.2188 41.0625 13.25 40.4375 13.3125C39.8125 13.375 39.1667 13.4688 38.5 13.5938C37.8333 13.7188 37.1719 13.875 36.5156 14.0625C35.8698 14.25 35.2656 14.474 34.7031 14.7344L33.2969 10.9375C33.9948 10.6875 34.7396 10.4583 35.5312 10.25C36.3333 10.0417 37.151 9.86458 37.9844 9.71875C38.8177 9.5625 39.651 9.44271 40.4844 9.35938C41.3177 9.27604 42.125 9.23438 42.9062 9.23438C46.3542 9.23438 48.9167 10.1146 50.5938 11.875C52.2708 13.6354 53.1094 16.3333 53.1094 19.9688V28H48.4844V26.2656C48.0052 26.5469 47.4792 26.8125 46.9062 27.0625C46.3438 27.3125 45.7292 27.5312 45.0625 27.7188C44.3958 27.9062 43.6771 28.0521 42.9062 28.1562C42.1458 28.2708 41.3385 28.3281 40.4844 28.3281C39.0469 28.3281 37.7812 28.1719 36.6875 27.8594C35.6042 27.5469 34.6979 27.1146 33.9688 26.5625C33.2396 26.0104 32.6875 25.3646 32.3125 24.625C31.9479 23.875 31.7656 23.0625 31.7656 22.1875ZM36.6406 22.0312C36.6406 22.3333 36.7188 22.625 36.875 22.9062C37.0312 23.1771 37.2812 23.4219 37.625 23.6406C37.9688 23.849 38.4062 24.0208 38.9375 24.1562C39.4792 24.2812 40.1302 24.3438 40.8906 24.3438C41.7031 24.3438 42.4896 24.2708 43.25 24.125C44.0104 23.9792 44.7188 23.7865 45.375 23.5469C46.0312 23.3073 46.625 23.0312 47.1562 22.7188C47.6875 22.4062 48.1302 22.0833 48.4844 21.75V20.9375C47.776 20.7396 47.0729 20.5729 46.375 20.4375C45.6875 20.3021 45.026 20.1979 44.3906 20.125C43.7656 20.0417 43.1719 19.9844 42.6094 19.9531C42.0573 19.9219 41.5729 19.9062 41.1562 19.9062C40.2917 19.9062 39.5729 19.9635 39 20.0781C38.4271 20.1927 37.9635 20.349 37.6094 20.5469C37.2552 20.7344 37.0052 20.9583 36.8594 21.2188C36.7135 21.4792 36.6406 21.75 36.6406 22.0312ZM56.6875 9.54688H62.0469L66.8438 20.6406L68.0938 23.75L69.3438 20.6406L74.1406 9.54688H79.5L70.7656 28H65.4219L56.6875 9.54688ZM94.0938 22.3438C95.3438 23.0938 96.7188 23.6458 98.2188 24C99.7188 24.3542 101.255 24.5312 102.828 24.5312C103.891 24.5312 104.776 24.4583 105.484 24.3125C106.193 24.1667 106.76 23.9792 107.188 23.75C107.615 23.5208 107.917 23.2604 108.094 22.9688C108.271 22.6771 108.359 22.3802 108.359 22.0781C108.359 21.6406 108.167 21.2656 107.781 20.9531C107.406 20.6406 106.781 20.4844 105.906 20.4844C105.5 20.4844 105.062 20.5104 104.594 20.5625C104.125 20.6146 103.63 20.6719 103.109 20.7344C102.599 20.7865 102.062 20.8385 101.5 20.8906C100.948 20.9427 100.385 20.9688 99.8125 20.9688C98.5625 20.9688 97.4948 20.8333 96.6094 20.5625C95.7344 20.2917 95.0208 19.9219 94.4688 19.4531C93.9167 18.9844 93.5156 18.4323 93.2656 17.7969C93.0156 17.151 92.8906 16.4583 92.8906 15.7188C92.8906 14.7812 93.1094 13.9167 93.5469 13.125C93.9844 12.3333 94.6094 11.651 95.4219 11.0781C96.2344 10.4948 97.2135 10.0417 98.3594 9.71875C99.5156 9.39583 100.802 9.23438 102.219 9.23438C102.958 9.23438 103.729 9.28125 104.531 9.375C105.344 9.45833 106.141 9.57292 106.922 9.71875C107.703 9.86458 108.453 10.0365 109.172 10.2344C109.891 10.4219 110.526 10.625 111.078 10.8438L109.625 14.4375C108.448 14 107.271 13.6562 106.094 13.4062C104.927 13.1458 103.724 13.0156 102.484 13.0156C101.62 13.0156 100.885 13.0833 100.281 13.2188C99.6875 13.3438 99.2031 13.5156 98.8281 13.7344C98.4531 13.9427 98.1771 14.1875 98 14.4688C97.8333 14.7396 97.75 15.026 97.75 15.3281C97.75 15.5469 97.7917 15.7448 97.875 15.9219C97.9688 16.099 98.1146 16.2552 98.3125 16.3906C98.5208 16.5156 98.7865 16.6146 99.1094 16.6875C99.4427 16.75 99.849 16.7812 100.328 16.7812C100.766 16.7812 101.229 16.7552 101.719 16.7031C102.208 16.651 102.719 16.599 103.25 16.5469C103.781 16.4844 104.328 16.4271 104.891 16.375C105.464 16.3229 106.047 16.2969 106.641 16.2969C107.745 16.2969 108.708 16.4271 109.531 16.6875C110.365 16.9479 111.052 17.3125 111.594 17.7812C112.135 18.25 112.542 18.8021 112.812 19.4375C113.083 20.0729 113.219 20.7656 113.219 21.5156C113.219 22.4844 112.995 23.3854 112.547 24.2188C112.099 25.0521 111.432 25.776 110.547 26.3906C109.661 26.9948 108.557 27.4688 107.234 27.8125C105.922 28.1562 104.401 28.3281 102.672 28.3281C101.609 28.3281 100.583 28.2604 99.5938 28.125C98.6042 28 97.6615 27.8281 96.7656 27.6094C95.8698 27.3802 95.026 27.1146 94.2344 26.8125C93.4531 26.5104 92.7396 26.1875 92.0938 25.8438L94.0938 22.3438Z" fill="#A8CF45"/>
<path d="M116.531 15.7188C116.531 13.875 116.87 12.1875 117.547 10.6562C118.224 9.125 119.172 7.8125 120.391 6.71875C121.62 5.61458 123.089 4.76042 124.797 4.15625C126.516 3.55208 128.417 3.25 130.5 3.25C132.573 3.25 134.469 3.55208 136.188 4.15625C137.906 4.76042 139.375 5.61458 140.594 6.71875C141.823 7.8125 142.776 9.125 143.453 10.6562C144.13 12.1875 144.469 13.875 144.469 15.7188C144.469 17.3646 144.198 18.8906 143.656 20.2969C143.125 21.6927 142.37 22.9323 141.391 24.0156L145.781 28H139.5L137.984 26.625C136.922 27.1875 135.766 27.6146 134.516 27.9062C133.266 28.1979 131.927 28.3438 130.5 28.3438C128.417 28.3438 126.516 28.0365 124.797 27.4219C123.089 26.7969 121.62 25.9271 120.391 24.8125C119.172 23.6979 118.224 22.3698 117.547 20.8281C116.87 19.276 116.531 17.5729 116.531 15.7188ZM121.484 15.7188C121.484 16.9792 121.708 18.1146 122.156 19.125C122.615 20.1354 123.245 21 124.047 21.7188C124.859 22.4271 125.812 22.974 126.906 23.3594C128.01 23.7448 129.208 23.9375 130.5 23.9375C131.885 23.9375 133.151 23.7188 134.297 23.2812L127.297 16.9375H133.578L137.828 20.7969C138.359 20.1198 138.771 19.3594 139.062 18.5156C139.365 17.6615 139.516 16.7292 139.516 15.7188C139.516 14.4583 139.286 13.3281 138.828 12.3281C138.37 11.3281 137.74 10.4844 136.938 9.79688C136.135 9.09896 135.182 8.56771 134.078 8.20312C132.984 7.83854 131.792 7.65625 130.5 7.65625C129.208 7.65625 128.01 7.83854 126.906 8.20312C125.812 8.56771 124.859 9.09896 124.047 9.79688C123.245 10.4844 122.615 11.3281 122.156 12.3281C121.708 13.3281 121.484 14.4583 121.484 15.7188ZM149.391 9.54688H154V18.5469C154 19.401 154.094 20.1823 154.281 20.8906C154.469 21.5885 154.786 22.1875 155.234 22.6875C155.693 23.1875 156.297 23.5781 157.047 23.8594C157.807 24.1302 158.75 24.2656 159.875 24.2656C160.406 24.2656 160.943 24.2083 161.484 24.0938C162.036 23.9792 162.562 23.8229 163.062 23.625C163.562 23.4167 164.026 23.1719 164.453 22.8906C164.891 22.6094 165.266 22.3021 165.578 21.9688V9.54688H170.203V28H165.578V26.4219C164.443 27.099 163.302 27.5833 162.156 27.875C161.01 28.1667 159.922 28.3125 158.891 28.3125C157.203 28.3125 155.755 28.1094 154.547 27.7031C153.349 27.2969 152.365 26.7083 151.594 25.9375C150.833 25.1562 150.276 24.2031 149.922 23.0781C149.568 21.9427 149.391 20.651 149.391 19.2031V9.54688ZM186.703 9.5625H191.328V11.125C192.557 10.4271 193.729 9.9375 194.844 9.65625C195.969 9.375 197.068 9.23438 198.141 9.23438C199.547 9.23438 200.849 9.44271 202.047 9.85938C203.245 10.2656 204.281 10.875 205.156 11.6875C206.031 12.5 206.714 13.5156 207.203 14.7344C207.703 15.9427 207.953 17.3438 207.953 18.9375V28H203.344V19.6875C203.344 18.6771 203.198 17.776 202.906 16.9844C202.625 16.1823 202.214 15.5104 201.672 14.9688C201.141 14.4167 200.49 14 199.719 13.7188C198.958 13.4271 198.104 13.2812 197.156 13.2812C196.656 13.2812 196.141 13.3333 195.609 13.4375C195.089 13.5417 194.573 13.6927 194.062 13.8906C193.562 14.0781 193.078 14.3177 192.609 14.6094C192.141 14.8906 191.714 15.2135 191.328 15.5781V28H186.703V9.5625ZM216.422 13.0312H211.969V9.5625H216.422V3.82812H221.047V9.5625H225.5V13.0312H221.047V28H216.422V13.0312ZM228.734 18.7188C228.734 17.4688 228.99 16.276 229.5 15.1406C230.01 13.9948 230.745 12.9844 231.703 12.1094C232.661 11.2344 233.833 10.5365 235.219 10.0156C236.615 9.49479 238.198 9.23438 239.969 9.23438C241.729 9.23438 243.312 9.5 244.719 10.0312C246.135 10.5521 247.333 11.2708 248.312 12.1875C249.302 13.1042 250.057 14.1823 250.578 15.4219C251.109 16.6615 251.375 17.9896 251.375 19.4062C251.375 19.5833 251.37 19.776 251.359 19.9844C251.359 20.1823 251.349 20.3646 251.328 20.5312H233.891C234.089 21.0833 234.406 21.5885 234.844 22.0469C235.292 22.5052 235.849 22.901 236.516 23.2344C237.182 23.5677 237.953 23.8281 238.828 24.0156C239.703 24.1927 240.672 24.2812 241.734 24.2812C242.797 24.2812 243.854 24.1719 244.906 23.9531C245.958 23.724 246.964 23.4375 247.922 23.0938L249.484 26.625C248.88 26.9062 248.266 27.1562 247.641 27.375C247.026 27.5833 246.38 27.7604 245.703 27.9062C245.036 28.0417 244.333 28.1458 243.594 28.2188C242.865 28.2917 242.094 28.3281 241.281 28.3281C239.208 28.3281 237.391 28.0781 235.828 27.5781C234.266 27.0781 232.958 26.3958 231.906 25.5312C230.854 24.6667 230.062 23.651 229.531 22.4844C229 21.3177 228.734 20.0625 228.734 18.7188ZM246.469 16.9219C246.302 16.4115 246.042 15.9375 245.688 15.5C245.344 15.0521 244.911 14.6667 244.391 14.3438C243.87 14.0104 243.266 13.75 242.578 13.5625C241.891 13.375 241.135 13.2812 240.312 13.2812C239.438 13.2812 238.641 13.3802 237.922 13.5781C237.203 13.776 236.573 14.0417 236.031 14.375C235.49 14.7083 235.036 15.0938 234.672 15.5312C234.318 15.9688 234.057 16.4323 233.891 16.9219H246.469ZM256.359 9.5625H260.984V12.2188C262.005 11.4583 263.083 10.8021 264.219 10.25C265.354 9.69792 266.484 9.27604 267.609 8.98438L268.969 13.2188C267.188 13.3958 265.62 13.7969 264.266 14.4219C262.922 15.0365 261.828 15.9062 260.984 17.0312V28H256.359V9.5625Z" fill="#EDF2F7"/>
<path d="M276.093 9L267 19L276.093 29L278.346 26.5223L271.506 19L278.346 11.4777L276.093 9ZM287.907 29L297 19L287.907 9L285.654 11.4777L292.494 19L285.654 26.5223L287.907 29Z" fill="#A8CF45"/>
<path d="M177.824 1V5.5H175.941C175 5.5 175 6.625 175 6.625V25.375C175.083 26.3694 175.449 26.5484 176.412 26.5H177.824V31H180.176V26.5H182.059C182.868 26.2622 182.974 25.9703 183 25.375V6.625C182.958 6.08999 183 5.5 182.059 5.5H180.176V1H177.824Z" fill="#4481EB" stroke="#4481EB"/>
<path d="M134 16H127L140.5 28H147L134 16Z" fill="#4481EB" stroke="#4481EB"/>
<path d="M84.8235 1V5.5H82.9412C82 5.5 82 6.625 82 6.625V25.375C82.0831 26.3694 82.4487 26.5484 83.4118 26.5H84.8235V31H87.1765V26.5H89.0588C89.8679 26.2621 89.9736 25.9703 90 25.375V6.625C89.9581 6.08999 90 5.5 89.0588 5.5H87.1765V1H84.8235Z" fill="#4481EB" stroke="#4481EB"/>
</svg>
