<svg width="286" height="284" viewBox="0 0 286 284" fill="none" xmlns="http://www.w3.org/2000/svg">
<g clip-path="url(#clip0_501_2)">
<path d="M248.583 48.25V76.375H235.45C228.884 76.375 228.884 83.4062 228.884 83.4062V200.594C229.464 206.809 232.015 207.927 238.733 207.625H248.583V235.75H264.999V207.625H278.131C283.776 206.138 284.514 204.314 284.698 200.594V83.4062C284.405 80.0625 284.698 76.375 278.131 76.375H264.999V48.25H248.583Z" fill="#1B2831" stroke="#1B2831"/>
<path d="M173.558 1.375V43.5625H160.425C153.859 43.5625 153.859 54.1094 153.859 54.1094V229.891C154.438 239.213 156.989 240.891 163.708 240.438H173.558V282.625H189.974V240.438H203.106C208.751 238.208 209.489 235.472 209.673 229.891V54.1094C209.38 49.0937 209.673 43.5625 203.106 43.5625H189.974V1.375H173.558Z" fill="#EDF2F7" stroke="#1B2831"/>
<path d="M95.7013 48.25V76.375H82.5686C76.0023 76.375 76.0023 83.4062 76.0023 83.4062V200.594C76.5819 206.809 79.133 207.927 85.8518 207.625H95.7013V235.75H112.117V207.625H125.25C130.894 206.138 131.632 204.314 131.816 200.594V83.4062C131.524 80.0625 131.816 76.375 125.25 76.375H112.117V48.25H95.7013Z" fill="#1B2831" stroke="#1B2831"/>
<path d="M20.6758 1.375V43.5625H7.54309C0.976746 43.5625 0.976746 54.1094 0.976746 54.1094V229.891C1.5564 239.213 4.10745 240.891 10.8263 240.438H20.6758V282.625H37.0917V240.438H50.2243C55.8689 238.208 56.6066 235.472 56.7907 229.891V54.1094C56.4983 49.0937 56.7907 43.5625 50.2243 43.5625H37.0917V1.375H20.6758Z" fill="#EDF2F7" stroke="#1B2831"/>
<path d="M101.81 56.2857L36.8571 142L101.81 227.714L117.903 206.477L69.0432 142L117.903 77.5228L101.81 56.2857ZM186.19 227.714L251.143 142L186.19 56.2857L170.097 77.5228L218.957 142L170.097 206.477L186.19 227.714Z" fill="#A8CF45"/>
</g>
<defs>
<clipPath id="clip0_501_2">
<rect width="286" height="284" fill="white"/>
</clipPath>
</defs>
</svg>
