<svg width="208" height="63" viewBox="0 0 208 63" fill="none" xmlns="http://www.w3.org/2000/svg">
<g clip-path="url(#clip0_423_2)">
<path d="M3.46875 5.57812H12.4219C15.0365 5.57812 17.3073 5.85938 19.2344 6.42188C21.1615 6.98438 22.7552 7.79167 24.0156 8.84375C25.2865 9.88542 26.2292 11.1562 26.8438 12.6562C27.4688 14.1458 27.7812 15.8229 27.7812 17.6875C27.7812 19.4583 27.474 21.099 26.8594 22.6094C26.2448 24.1094 25.3073 25.4115 24.0469 26.5156C22.7865 27.6094 21.1927 28.4688 19.2656 29.0938C17.3385 29.7083 15.0677 30.0156 12.4531 30.0156L3.46875 30V5.57812ZM13.6406 25.7188C15.1198 25.7188 16.4167 25.5312 17.5312 25.1562C18.6458 24.7708 19.5729 24.2292 20.3125 23.5312C21.0625 22.8333 21.625 21.9896 22 21C22.375 20.0104 22.5625 18.9062 22.5625 17.6875C22.5625 16.4896 22.375 15.4115 22 14.4531C21.625 13.4844 21.0625 12.6667 20.3125 12C19.5729 11.3229 18.6458 10.8021 17.5312 10.4375C16.4167 10.0729 15.1198 9.89062 13.6406 9.89062H8.42188V25.7188H13.6406ZM31.2969 24.1875C31.2969 23.3021 31.4896 22.4948 31.875 21.7656C32.2604 21.0365 32.8385 20.4115 33.6094 19.8906C34.3802 19.3594 35.3385 18.9531 36.4844 18.6719C37.6406 18.3802 38.9844 18.2344 40.5156 18.2344C41.651 18.2344 42.8438 18.3177 44.0938 18.4844C45.3542 18.651 46.651 18.9062 47.9844 19.25C47.9323 18.6667 47.7552 18.1302 47.4531 17.6406C47.151 17.1406 46.7292 16.7135 46.1875 16.3594C45.6562 15.9948 45.0104 15.7135 44.25 15.5156C43.5 15.3177 42.6458 15.2188 41.6875 15.2188C41.1667 15.2188 40.5938 15.25 39.9688 15.3125C39.3438 15.375 38.6979 15.4688 38.0312 15.5938C37.3646 15.7188 36.7031 15.875 36.0469 16.0625C35.401 16.25 34.7969 16.474 34.2344 16.7344L32.8281 12.9375C33.526 12.6875 34.2708 12.4583 35.0625 12.25C35.8646 12.0417 36.6823 11.8646 37.5156 11.7188C38.349 11.5625 39.1823 11.4427 40.0156 11.3594C40.849 11.276 41.6562 11.2344 42.4375 11.2344C45.8854 11.2344 48.4479 12.1146 50.125 13.875C51.8021 15.6354 52.6406 18.3333 52.6406 21.9688V30H48.0156V28.2656C47.5365 28.5469 47.0104 28.8125 46.4375 29.0625C45.875 29.3125 45.2604 29.5312 44.5938 29.7188C43.9271 29.9062 43.2083 30.0521 42.4375 30.1562C41.6771 30.2708 40.8698 30.3281 40.0156 30.3281C38.5781 30.3281 37.3125 30.1719 36.2188 29.8594C35.1354 29.5469 34.2292 29.1146 33.5 28.5625C32.7708 28.0104 32.2188 27.3646 31.8438 26.625C31.4792 25.875 31.2969 25.0625 31.2969 24.1875ZM36.1719 24.0312C36.1719 24.3333 36.25 24.625 36.4062 24.9062C36.5625 25.1771 36.8125 25.4219 37.1562 25.6406C37.5 25.849 37.9375 26.0208 38.4688 26.1562C39.0104 26.2812 39.6615 26.3438 40.4219 26.3438C41.2344 26.3438 42.0208 26.2708 42.7812 26.125C43.5417 25.9792 44.25 25.7865 44.9062 25.5469C45.5625 25.3073 46.1562 25.0312 46.6875 24.7188C47.2188 24.4062 47.6615 24.0833 48.0156 23.75V22.9375C47.3073 22.7396 46.6042 22.5729 45.9062 22.4375C45.2188 22.3021 44.5573 22.1979 43.9219 22.125C43.2969 22.0417 42.7031 21.9844 42.1406 21.9531C41.5885 21.9219 41.1042 21.9062 40.6875 21.9062C39.8229 21.9062 39.1042 21.9635 38.5312 22.0781C37.9583 22.1927 37.4948 22.349 37.1406 22.5469C36.7865 22.7344 36.5365 22.9583 36.3906 23.2188C36.2448 23.4792 36.1719 23.75 36.1719 24.0312ZM56.2188 11.5469H61.5781L66.375 22.6406L67.625 25.75L68.875 22.6406L73.6719 11.5469H79.0312L70.2969 30H64.9531L56.2188 11.5469ZM93.625 24.3438C94.875 25.0938 96.25 25.6458 97.75 26C99.25 26.3542 100.786 26.5312 102.359 26.5312C103.422 26.5312 104.307 26.4583 105.016 26.3125C105.724 26.1667 106.292 25.9792 106.719 25.75C107.146 25.5208 107.448 25.2604 107.625 24.9688C107.802 24.6771 107.891 24.3802 107.891 24.0781C107.891 23.6406 107.698 23.2656 107.312 22.9531C106.938 22.6406 106.312 22.4844 105.438 22.4844C105.031 22.4844 104.594 22.5104 104.125 22.5625C103.656 22.6146 103.161 22.6719 102.641 22.7344C102.13 22.7865 101.594 22.8385 101.031 22.8906C100.479 22.9427 99.9167 22.9688 99.3438 22.9688C98.0938 22.9688 97.026 22.8333 96.1406 22.5625C95.2656 22.2917 94.5521 21.9219 94 21.4531C93.4479 20.9844 93.0469 20.4323 92.7969 19.7969C92.5469 19.151 92.4219 18.4583 92.4219 17.7188C92.4219 16.7812 92.6406 15.9167 93.0781 15.125C93.5156 14.3333 94.1406 13.651 94.9531 13.0781C95.7656 12.4948 96.7448 12.0417 97.8906 11.7188C99.0469 11.3958 100.333 11.2344 101.75 11.2344C102.49 11.2344 103.26 11.2812 104.062 11.375C104.875 11.4583 105.672 11.5729 106.453 11.7188C107.234 11.8646 107.984 12.0365 108.703 12.2344C109.422 12.4219 110.057 12.625 110.609 12.8438L109.156 16.4375C107.979 16 106.802 15.6562 105.625 15.4062C104.458 15.1458 103.255 15.0156 102.016 15.0156C101.151 15.0156 100.417 15.0833 99.8125 15.2188C99.2188 15.3438 98.7344 15.5156 98.3594 15.7344C97.9844 15.9427 97.7083 16.1875 97.5312 16.4688C97.3646 16.7396 97.2812 17.026 97.2812 17.3281C97.2812 17.5469 97.3229 17.7448 97.4062 17.9219C97.5 18.099 97.6458 18.2552 97.8438 18.3906C98.0521 18.5156 98.3177 18.6146 98.6406 18.6875C98.974 18.75 99.3802 18.7812 99.8594 18.7812C100.297 18.7812 100.76 18.7552 101.25 18.7031C101.74 18.651 102.25 18.599 102.781 18.5469C103.312 18.4844 103.859 18.4271 104.422 18.375C104.995 18.3229 105.578 18.2969 106.172 18.2969C107.276 18.2969 108.24 18.4271 109.062 18.6875C109.896 18.9479 110.583 19.3125 111.125 19.7812C111.667 20.25 112.073 20.8021 112.344 21.4375C112.615 22.0729 112.75 22.7656 112.75 23.5156C112.75 24.4844 112.526 25.3854 112.078 26.2188C111.63 27.0521 110.964 27.776 110.078 28.3906C109.193 28.9948 108.089 29.4688 106.766 29.8125C105.453 30.1562 103.932 30.3281 102.203 30.3281C101.141 30.3281 100.115 30.2604 99.125 30.125C98.1354 30 97.1927 29.8281 96.2969 29.6094C95.401 29.3802 94.5573 29.1146 93.7656 28.8125C92.9844 28.5104 92.2708 28.1875 91.625 27.8438L93.625 24.3438ZM23.2812 44.7188C23.2812 42.875 23.6198 41.1875 24.2969 39.6562C24.974 38.125 25.9219 36.8125 27.1406 35.7188C28.3698 34.6146 29.8385 33.7604 31.5469 33.1562C33.2656 32.5521 35.1667 32.25 37.25 32.25C39.3229 32.25 41.2188 32.5521 42.9375 33.1562C44.6562 33.7604 46.125 34.6146 47.3438 35.7188C48.5729 36.8125 49.526 38.125 50.2031 39.6562C50.8802 41.1875 51.2188 42.875 51.2188 44.7188C51.2188 46.3646 50.9479 47.8906 50.4062 49.2969C49.875 50.6927 49.1198 51.9323 48.1406 53.0156L52.5312 57H46.25L44.7344 55.625C43.6719 56.1875 42.5156 56.6146 41.2656 56.9062C40.0156 57.1979 38.6771 57.3438 37.25 57.3438C35.1667 57.3438 33.2656 57.0365 31.5469 56.4219C29.8385 55.7969 28.3698 54.9271 27.1406 53.8125C25.9219 52.6979 24.974 51.3698 24.2969 49.8281C23.6198 48.276 23.2812 46.5729 23.2812 44.7188ZM28.2344 44.7188C28.2344 45.9792 28.4583 47.1146 28.9062 48.125C29.3646 49.1354 29.9948 50 30.7969 50.7188C31.6094 51.4271 32.5625 51.974 33.6562 52.3594C34.7604 52.7448 35.9583 52.9375 37.25 52.9375C38.6354 52.9375 39.901 52.7188 41.0469 52.2812L34.0469 45.9375H40.3281L44.5781 49.7969C45.1094 49.1198 45.5208 48.3594 45.8125 47.5156C46.1146 46.6615 46.2656 45.7292 46.2656 44.7188C46.2656 43.4583 46.0365 42.3281 45.5781 41.3281C45.1198 40.3281 44.4896 39.4844 43.6875 38.7969C42.8854 38.099 41.9323 37.5677 40.8281 37.2031C39.7344 36.8385 38.5417 36.6562 37.25 36.6562C35.9583 36.6562 34.7604 36.8385 33.6562 37.2031C32.5625 37.5677 31.6094 38.099 30.7969 38.7969C29.9948 39.4844 29.3646 40.3281 28.9062 41.3281C28.4583 42.3281 28.2344 43.4583 28.2344 44.7188ZM56.1406 38.5469H60.75V47.5469C60.75 48.401 60.8438 49.1823 61.0312 49.8906C61.2188 50.5885 61.5365 51.1875 61.9844 51.6875C62.4427 52.1875 63.0469 52.5781 63.7969 52.8594C64.5573 53.1302 65.5 53.2656 66.625 53.2656C67.1562 53.2656 67.6927 53.2083 68.2344 53.0938C68.7865 52.9792 69.3125 52.8229 69.8125 52.625C70.3125 52.4167 70.776 52.1719 71.2031 51.8906C71.6406 51.6094 72.0156 51.3021 72.3281 50.9688V38.5469H76.9531V57H72.3281V55.4219C71.1927 56.099 70.0521 56.5833 68.9062 56.875C67.7604 57.1667 66.6719 57.3125 65.6406 57.3125C63.9531 57.3125 62.5052 57.1094 61.2969 56.7031C60.099 56.2969 59.1146 55.7083 58.3438 54.9375C57.5833 54.1562 57.026 53.2031 56.6719 52.0781C56.3177 50.9427 56.1406 49.651 56.1406 48.2031V38.5469ZM93.4531 38.5625H98.0781V40.125C99.3073 39.4271 100.479 38.9375 101.594 38.6562C102.719 38.375 103.818 38.2344 104.891 38.2344C106.297 38.2344 107.599 38.4427 108.797 38.8594C109.995 39.2656 111.031 39.875 111.906 40.6875C112.781 41.5 113.464 42.5156 113.953 43.7344C114.453 44.9427 114.703 46.3438 114.703 47.9375V57H110.094V48.6875C110.094 47.6771 109.948 46.776 109.656 45.9844C109.375 45.1823 108.964 44.5104 108.422 43.9688C107.891 43.4167 107.24 43 106.469 42.7188C105.708 42.4271 104.854 42.2812 103.906 42.2812C103.406 42.2812 102.891 42.3333 102.359 42.4375C101.839 42.5417 101.323 42.6927 100.812 42.8906C100.312 43.0781 99.8281 43.3177 99.3594 43.6094C98.8906 43.8906 98.4635 44.2135 98.0781 44.5781V57H93.4531V38.5625ZM123.172 42.0312H118.719V38.5625H123.172V32.8281H127.797V38.5625H132.25V42.0312H127.797V57H123.172V42.0312ZM135.484 47.7188C135.484 46.4688 135.74 45.276 136.25 44.1406C136.76 42.9948 137.495 41.9844 138.453 41.1094C139.411 40.2344 140.583 39.5365 141.969 39.0156C143.365 38.4948 144.948 38.2344 146.719 38.2344C148.479 38.2344 150.062 38.5 151.469 39.0312C152.885 39.5521 154.083 40.2708 155.062 41.1875C156.052 42.1042 156.807 43.1823 157.328 44.4219C157.859 45.6615 158.125 46.9896 158.125 48.4062C158.125 48.5833 158.12 48.776 158.109 48.9844C158.109 49.1823 158.099 49.3646 158.078 49.5312H140.641C140.839 50.0833 141.156 50.5885 141.594 51.0469C142.042 51.5052 142.599 51.901 143.266 52.2344C143.932 52.5677 144.703 52.8281 145.578 53.0156C146.453 53.1927 147.422 53.2812 148.484 53.2812C149.547 53.2812 150.604 53.1719 151.656 52.9531C152.708 52.724 153.714 52.4375 154.672 52.0938L156.234 55.625C155.63 55.9062 155.016 56.1562 154.391 56.375C153.776 56.5833 153.13 56.7604 152.453 56.9062C151.786 57.0417 151.083 57.1458 150.344 57.2188C149.615 57.2917 148.844 57.3281 148.031 57.3281C145.958 57.3281 144.141 57.0781 142.578 56.5781C141.016 56.0781 139.708 55.3958 138.656 54.5312C137.604 53.6667 136.812 52.651 136.281 51.4844C135.75 50.3177 135.484 49.0625 135.484 47.7188ZM153.219 45.9219C153.052 45.4115 152.792 44.9375 152.438 44.5C152.094 44.0521 151.661 43.6667 151.141 43.3438C150.62 43.0104 150.016 42.75 149.328 42.5625C148.641 42.375 147.885 42.2812 147.062 42.2812C146.188 42.2812 145.391 42.3802 144.672 42.5781C143.953 42.776 143.323 43.0417 142.781 43.375C142.24 43.7083 141.786 44.0938 141.422 44.5312C141.068 44.9688 140.807 45.4323 140.641 45.9219H153.219ZM163.109 38.5625H167.734V41.2188C168.755 40.4583 169.833 39.8021 170.969 39.25C172.104 38.6979 173.234 38.276 174.359 37.9844L175.719 42.2188C173.938 42.3958 172.37 42.7969 171.016 43.4219C169.672 44.0365 168.578 44.9062 167.734 46.0312V57H163.109V38.5625Z" fill="#1B2831"/>
<path d="M83.5294 2V11H81.1765C80 11 80 13.25 80 13.25V50.75C80.1039 52.7387 80.5609 53.0967 81.7647 53H83.5294V62H86.4706V53H88.8235C89.8349 52.5243 89.967 51.9406 90 50.75V13.25C89.9476 12.18 90 11 88.8235 11H86.4706V2H83.5294Z" fill="#EDF2F7" stroke="#1B2831"/>
<path d="M183.093 37L174 47L183.093 57L185.346 54.5223L178.506 47L185.346 39.4777L183.093 37ZM194.907 57L204 47L194.907 37L192.654 39.4777L199.494 47L192.654 54.5223L194.907 57Z" fill="#A8CF45"/>
<path d="M41 46H34L47.5 58H54L41 46Z" fill="#2962FF"/>
</g>
<defs>
<clipPath id="clip0_423_2">
<rect width="208" height="63" fill="white"/>
</clipPath>
</defs>
</svg>
