<svg width="265" height="43" viewBox="0 0 265 43" fill="none" xmlns="http://www.w3.org/2000/svg">
<path d="M2.53125 22.8594C2.53125 21.3906 2.80729 20.0677 3.35938 18.8906C3.91146 17.7031 4.67188 16.6927 5.64062 15.8594C6.61979 15.0156 7.77604 14.3698 9.10938 13.9219C10.4531 13.4635 11.9062 13.2344 13.4688 13.2344C14.1354 13.2344 14.7917 13.276 15.4375 13.3594C16.0938 13.4427 16.7188 13.5573 17.3125 13.7031C17.9167 13.849 18.4792 14.026 19 14.2344C19.5312 14.4323 20 14.651 20.4062 14.8906V6.07812H25.0312V32H20.4062V30.2656C20 30.5469 19.5208 30.8125 18.9688 31.0625C18.4167 31.3125 17.8229 31.5312 17.1875 31.7188C16.5521 31.9062 15.8906 32.0521 15.2031 32.1562C14.526 32.2708 13.8542 32.3281 13.1875 32.3281C11.625 32.3281 10.1875 32.099 8.875 31.6406C7.57292 31.1823 6.45312 30.5365 5.51562 29.7031C4.57812 28.8698 3.84375 27.875 3.3125 26.7188C2.79167 25.5521 2.53125 24.2656 2.53125 22.8594ZM7.39062 22.8594C7.39062 23.599 7.53646 24.2969 7.82812 24.9531C8.13021 25.6094 8.55729 26.1875 9.10938 26.6875C9.67188 27.1771 10.3438 27.5677 11.125 27.8594C11.9167 28.1406 12.8021 28.2812 13.7812 28.2812C14.4062 28.2812 15.0312 28.224 15.6562 28.1094C16.2812 27.9844 16.8802 27.8125 17.4531 27.5938C18.0365 27.375 18.5781 27.1094 19.0781 26.7969C19.5885 26.4844 20.0312 26.1354 20.4062 25.75V19.3594C19.9375 18.9844 19.4427 18.6667 18.9219 18.4062C18.401 18.1458 17.8698 17.9323 17.3281 17.7656C16.7865 17.599 16.2396 17.4792 15.6875 17.4062C15.1354 17.3229 14.599 17.2812 14.0781 17.2812C13.0156 17.2812 12.0677 17.4271 11.2344 17.7188C10.4115 18 9.71354 18.3906 9.14062 18.8906C8.57812 19.3906 8.14583 19.9792 7.84375 20.6562C7.54167 21.3333 7.39062 22.0677 7.39062 22.8594ZM29.8281 26.1875C29.8281 25.3021 30.0208 24.4948 30.4062 23.7656C30.7917 23.0365 31.3698 22.4115 32.1406 21.8906C32.9115 21.3594 33.8698 20.9531 35.0156 20.6719C36.1719 20.3802 37.5156 20.2344 39.0469 20.2344C40.1823 20.2344 41.375 20.3177 42.625 20.4844C43.8854 20.651 45.1823 20.9062 46.5156 21.25C46.4635 20.6667 46.2865 20.1302 45.9844 19.6406C45.6823 19.1406 45.2604 18.7135 44.7188 18.3594C44.1875 17.9948 43.5417 17.7135 42.7812 17.5156C42.0312 17.3177 41.1771 17.2188 40.2188 17.2188C39.6979 17.2188 39.125 17.25 38.5 17.3125C37.875 17.375 37.2292 17.4688 36.5625 17.5938C35.8958 17.7188 35.2344 17.875 34.5781 18.0625C33.9323 18.25 33.3281 18.474 32.7656 18.7344L31.3594 14.9375C32.0573 14.6875 32.8021 14.4583 33.5938 14.25C34.3958 14.0417 35.2135 13.8646 36.0469 13.7188C36.8802 13.5625 37.7135 13.4427 38.5469 13.3594C39.3802 13.276 40.1875 13.2344 40.9688 13.2344C44.4167 13.2344 46.9792 14.1146 48.6562 15.875C50.3333 17.6354 51.1719 20.3333 51.1719 23.9688V32H46.5469V30.2656C46.0677 30.5469 45.5417 30.8125 44.9688 31.0625C44.4062 31.3125 43.7917 31.5312 43.125 31.7188C42.4583 31.9062 41.7396 32.0521 40.9688 32.1562C40.2083 32.2708 39.401 32.3281 38.5469 32.3281C37.1094 32.3281 35.8438 32.1719 34.75 31.8594C33.6667 31.5469 32.7604 31.1146 32.0312 30.5625C31.3021 30.0104 30.75 29.3646 30.375 28.625C30.0104 27.875 29.8281 27.0625 29.8281 26.1875ZM34.7031 26.0312C34.7031 26.3333 34.7812 26.625 34.9375 26.9062C35.0938 27.1771 35.3438 27.4219 35.6875 27.6406C36.0312 27.849 36.4688 28.0208 37 28.1562C37.5417 28.2812 38.1927 28.3438 38.9531 28.3438C39.7656 28.3438 40.5521 28.2708 41.3125 28.125C42.0729 27.9792 42.7812 27.7865 43.4375 27.5469C44.0938 27.3073 44.6875 27.0312 45.2188 26.7188C45.75 26.4062 46.1927 26.0833 46.5469 25.75V24.9375C45.8385 24.7396 45.1354 24.5729 44.4375 24.4375C43.75 24.3021 43.0885 24.1979 42.4531 24.125C41.8281 24.0417 41.2344 23.9844 40.6719 23.9531C40.1198 23.9219 39.6354 23.9062 39.2188 23.9062C38.3542 23.9062 37.6354 23.9635 37.0625 24.0781C36.4896 24.1927 36.026 24.349 35.6719 24.5469C35.3177 24.7344 35.0677 24.9583 34.9219 25.2188C34.776 25.4792 34.7031 25.75 34.7031 26.0312ZM54.75 13.5469H60.1094L64.9062 24.6406L66.1562 27.75L67.4062 24.6406L72.2031 13.5469H77.5625L68.8281 32H63.4844L54.75 13.5469Z" fill="#A8CF45"/>
<path d="M79.9375 19.7188C79.9375 17.875 80.276 16.1875 80.9531 14.6562C81.6302 13.125 82.5781 11.8125 83.7969 10.7188C85.026 9.61458 86.4948 8.76042 88.2031 8.15625C89.9219 7.55208 91.8229 7.25 93.9062 7.25C95.9792 7.25 97.875 7.55208 99.5938 8.15625C101.312 8.76042 102.781 9.61458 104 10.7188C105.229 11.8125 106.182 13.125 106.859 14.6562C107.536 16.1875 107.875 17.875 107.875 19.7188C107.875 21.3646 107.604 22.8906 107.062 24.2969C106.531 25.6927 105.776 26.9323 104.797 28.0156L109.188 32H102.906L101.391 30.625C100.328 31.1875 99.1719 31.6146 97.9219 31.9062C96.6719 32.1979 95.3333 32.3438 93.9062 32.3438C91.8229 32.3438 89.9219 32.0365 88.2031 31.4219C86.4948 30.7969 85.026 29.9271 83.7969 28.8125C82.5781 27.6979 81.6302 26.3698 80.9531 24.8281C80.276 23.276 79.9375 21.5729 79.9375 19.7188ZM84.8906 19.7188C84.8906 20.9792 85.1146 22.1146 85.5625 23.125C86.0208 24.1354 86.651 25 87.4531 25.7188C88.2656 26.4271 89.2188 26.974 90.3125 27.3594C91.4167 27.7448 92.6146 27.9375 93.9062 27.9375C95.2917 27.9375 96.5573 27.7188 97.7031 27.2812L90.7031 20.9375H96.9844L101.234 24.7969C101.766 24.1198 102.177 23.3594 102.469 22.5156C102.771 21.6615 102.922 20.7292 102.922 19.7188C102.922 18.4583 102.693 17.3281 102.234 16.3281C101.776 15.3281 101.146 14.4844 100.344 13.7969C99.5417 13.099 98.5885 12.5677 97.4844 12.2031C96.3906 11.8385 95.1979 11.6562 93.9062 11.6562C92.6146 11.6562 91.4167 11.8385 90.3125 12.2031C89.2188 12.5677 88.2656 13.099 87.4531 13.7969C86.651 14.4844 86.0208 15.3281 85.5625 16.3281C85.1146 17.3281 84.8906 18.4583 84.8906 19.7188ZM112.797 13.5469H117.406V22.5469C117.406 23.401 117.5 24.1823 117.688 24.8906C117.875 25.5885 118.193 26.1875 118.641 26.6875C119.099 27.1875 119.703 27.5781 120.453 27.8594C121.214 28.1302 122.156 28.2656 123.281 28.2656C123.812 28.2656 124.349 28.2083 124.891 28.0938C125.443 27.9792 125.969 27.8229 126.469 27.625C126.969 27.4167 127.432 27.1719 127.859 26.8906C128.297 26.6094 128.672 26.3021 128.984 25.9688V13.5469H133.609V32H128.984V30.4219C127.849 31.099 126.708 31.5833 125.562 31.875C124.417 32.1667 123.328 32.3125 122.297 32.3125C120.609 32.3125 119.161 32.1094 117.953 31.7031C116.755 31.2969 115.771 30.7083 115 29.9375C114.24 29.1562 113.682 28.2031 113.328 27.0781C112.974 25.9427 112.797 24.651 112.797 23.2031V13.5469ZM150.109 13.5625H154.734V15.125C155.964 14.4271 157.135 13.9375 158.25 13.6562C159.375 13.375 160.474 13.2344 161.547 13.2344C162.953 13.2344 164.255 13.4427 165.453 13.8594C166.651 14.2656 167.688 14.875 168.562 15.6875C169.438 16.5 170.12 17.5156 170.609 18.7344C171.109 19.9427 171.359 21.3438 171.359 22.9375V32H166.75V23.6875C166.75 22.6771 166.604 21.776 166.312 20.9844C166.031 20.1823 165.62 19.5104 165.078 18.9688C164.547 18.4167 163.896 18 163.125 17.7188C162.365 17.4271 161.51 17.2812 160.562 17.2812C160.062 17.2812 159.547 17.3333 159.016 17.4375C158.495 17.5417 157.979 17.6927 157.469 17.8906C156.969 18.0781 156.484 18.3177 156.016 18.6094C155.547 18.8906 155.12 19.2135 154.734 19.5781V32H150.109V13.5625ZM179.828 17.0312H175.375V13.5625H179.828V7.82812H184.453V13.5625H188.906V17.0312H184.453V32H179.828V17.0312ZM192.141 22.7188C192.141 21.4688 192.396 20.276 192.906 19.1406C193.417 17.9948 194.151 16.9844 195.109 16.1094C196.068 15.2344 197.24 14.5365 198.625 14.0156C200.021 13.4948 201.604 13.2344 203.375 13.2344C205.135 13.2344 206.719 13.5 208.125 14.0312C209.542 14.5521 210.74 15.2708 211.719 16.1875C212.708 17.1042 213.464 18.1823 213.984 19.4219C214.516 20.6615 214.781 21.9896 214.781 23.4062C214.781 23.5833 214.776 23.776 214.766 23.9844C214.766 24.1823 214.755 24.3646 214.734 24.5312H197.297C197.495 25.0833 197.812 25.5885 198.25 26.0469C198.698 26.5052 199.255 26.901 199.922 27.2344C200.589 27.5677 201.359 27.8281 202.234 28.0156C203.109 28.1927 204.078 28.2812 205.141 28.2812C206.203 28.2812 207.26 28.1719 208.312 27.9531C209.365 27.724 210.37 27.4375 211.328 27.0938L212.891 30.625C212.286 30.9062 211.672 31.1562 211.047 31.375C210.432 31.5833 209.786 31.7604 209.109 31.9062C208.443 32.0417 207.74 32.1458 207 32.2188C206.271 32.2917 205.5 32.3281 204.688 32.3281C202.615 32.3281 200.797 32.0781 199.234 31.5781C197.672 31.0781 196.365 30.3958 195.312 29.5312C194.26 28.6667 193.469 27.651 192.938 26.4844C192.406 25.3177 192.141 24.0625 192.141 22.7188ZM209.875 20.9219C209.708 20.4115 209.448 19.9375 209.094 19.5C208.75 19.0521 208.318 18.6667 207.797 18.3438C207.276 18.0104 206.672 17.75 205.984 17.5625C205.297 17.375 204.542 17.2812 203.719 17.2812C202.844 17.2812 202.047 17.3802 201.328 17.5781C200.609 17.776 199.979 18.0417 199.438 18.375C198.896 18.7083 198.443 19.0938 198.078 19.5312C197.724 19.9688 197.464 20.4323 197.297 20.9219H209.875ZM219.766 13.5625H224.391V16.2188C225.411 15.4583 226.49 14.8021 227.625 14.25C228.76 13.6979 229.891 13.276 231.016 12.9844L232.375 17.2188C230.594 17.3958 229.026 17.7969 227.672 18.4219C226.328 19.0365 225.234 19.9062 224.391 21.0312V32H219.766V13.5625Z" fill="#EDF2F7"/>
<path d="M97 21H90L103.5 33H110L97 21Z" fill="#4481EB" stroke="#4481EB"/>
<path d="M140.494 7V11.5495H138.831C138 11.5495 138 12.6868 138 12.6868V31.6429C138.073 32.6482 138.396 32.8291 139.247 32.7802H140.494V37.3297H142.572V32.7802H144.235C144.95 32.5398 145.043 32.2447 145.066 31.6429V12.6868C145.029 12.1459 145.066 11.5495 144.235 11.5495H142.572V7H140.494Z" fill="#4481EB" stroke="#4481EB"/>
<path d="M238.822 13.4883L229.31 23L238.822 32.5117L241.178 30.155L234.023 23L241.178 15.845L238.822 13.4883ZM251.178 32.5117L260.69 23L251.178 13.4883L248.822 15.845L255.977 23L248.822 30.155L251.178 32.5117Z" fill="#A8CF45"/>
</svg>
