<svg width="240" height="240" viewBox="0 0 240 240" fill="none" xmlns="http://www.w3.org/2000/svg">
<path d="M120 224C177.438 224 224 177.438 224 120C224 62.5624 177.438 16 120 16C62.5624 16 16 62.5624 16 120C16 177.438 62.5624 224 120 224Z" fill="#E34F26"/>
<path d="M39 143V96.4545H71.7273V106.636H51.6364V114.636H69.7273V124.818H51.6364V143H39ZM76.375 143V96.4545H109.92V106.636H89.0114V114.636H108.193V124.818H89.0114V132.818H109.83V143H76.375ZM141.278 111C141.157 109.485 140.589 108.303 139.574 107.455C138.574 106.606 137.051 106.182 135.006 106.182C133.703 106.182 132.634 106.341 131.801 106.659C130.983 106.962 130.377 107.379 129.983 107.909C129.589 108.439 129.384 109.045 129.369 109.727C129.339 110.288 129.438 110.795 129.665 111.25C129.907 111.689 130.286 112.091 130.801 112.455C131.316 112.803 131.975 113.121 132.778 113.409C133.581 113.697 134.536 113.955 135.642 114.182L139.46 115C142.036 115.545 144.241 116.265 146.074 117.159C147.907 118.053 149.407 119.106 150.574 120.318C151.741 121.515 152.597 122.864 153.142 124.364C153.703 125.864 153.991 127.5 154.006 129.273C153.991 132.333 153.225 134.924 151.71 137.045C150.195 139.167 148.028 140.78 145.21 141.886C142.407 142.992 139.036 143.545 135.097 143.545C131.051 143.545 127.521 142.947 124.506 141.75C121.506 140.553 119.172 138.712 117.506 136.227C115.854 133.727 115.021 130.53 115.006 126.636H127.006C127.081 128.061 127.438 129.258 128.074 130.227C128.71 131.197 129.604 131.932 130.756 132.432C131.922 132.932 133.309 133.182 134.915 133.182C136.263 133.182 137.392 133.015 138.301 132.682C139.21 132.348 139.9 131.886 140.369 131.295C140.839 130.705 141.081 130.03 141.097 129.273C141.081 128.561 140.847 127.939 140.392 127.409C139.953 126.864 139.225 126.379 138.21 125.955C137.195 125.515 135.824 125.106 134.097 124.727L129.46 123.727C125.339 122.833 122.089 121.341 119.71 119.25C117.347 117.144 116.172 114.273 116.188 110.636C116.172 107.682 116.96 105.098 118.551 102.886C120.157 100.659 122.377 98.9242 125.21 97.6818C128.059 96.4394 131.324 95.8182 135.006 95.8182C138.763 95.8182 142.013 96.447 144.756 97.7045C147.498 98.9621 149.612 100.735 151.097 103.023C152.597 105.295 153.354 107.955 153.369 111H141.278ZM202.267 113.909H189.449C189.358 112.848 189.116 111.886 188.722 111.023C188.343 110.159 187.813 109.417 187.131 108.795C186.464 108.159 185.653 107.674 184.699 107.341C183.744 106.992 182.661 106.818 181.449 106.818C179.328 106.818 177.532 107.333 176.062 108.364C174.608 109.394 173.502 110.871 172.744 112.795C172.002 114.72 171.631 117.03 171.631 119.727C171.631 122.576 172.009 124.962 172.767 126.886C173.54 128.795 174.653 130.235 176.108 131.205C177.563 132.159 179.313 132.636 181.358 132.636C182.525 132.636 183.57 132.492 184.494 132.205C185.419 131.902 186.222 131.47 186.903 130.909C187.585 130.348 188.138 129.674 188.562 128.886C189.002 128.083 189.297 127.182 189.449 126.182L202.267 126.273C202.116 128.242 201.563 130.25 200.608 132.295C199.653 134.326 198.297 136.205 196.54 137.932C194.797 139.644 192.638 141.023 190.062 142.068C187.487 143.114 184.494 143.636 181.085 143.636C176.812 143.636 172.979 142.72 169.585 140.886C166.206 139.053 163.532 136.356 161.562 132.795C159.608 129.235 158.631 124.879 158.631 119.727C158.631 114.545 159.631 110.182 161.631 106.636C163.631 103.076 166.328 100.386 169.722 98.5682C173.116 96.7348 176.903 95.8182 181.085 95.8182C184.025 95.8182 186.729 96.2197 189.199 97.0227C191.669 97.8258 193.835 99 195.699 100.545C197.563 102.076 199.063 103.962 200.199 106.205C201.335 108.447 202.025 111.015 202.267 113.909Z" fill="black"/>
</svg>
